<svg xmlns="http://www.w3.org/2000/svg" fill="none" viewBox="0 0 97 25" width="97" height="25">
    <path fill="currentColor"
        d="M19.94 24.304v-9.642c0-3.934 2.294-7.066 6.885-7.066a8.801 8.801 0 0 1 2.188.243v3.967c-.521-.035-.973-.035-1.182-.035-2.431 0-3.477 1.113-3.477 3.376v9.157H19.94ZM30.335 16.126c0-4.838 3.651-8.528 8.728-8.528 5.078 0 8.728 3.687 8.728 8.528 0 4.841-3.651 8.56-8.728 8.56s-8.728-3.724-8.728-8.56Zm13.11 0c0-2.75-1.844-4.699-4.382-4.699-2.538 0-4.382 1.947-4.382 4.7 0 2.784 1.844 4.699 4.382 4.699 2.539 0 4.381-1.917 4.381-4.7ZM60.587 11.46h-4.764v6.091c0 2.123.765 3.098 2.956 3.098.208 0 .73 0 1.39-.035V24.2c-.903.243-1.701.383-2.572.383-3.686 0-6.19-2.228-6.19-6.44V11.46H48.45V7.944h.737a2.217 2.217 0 0 0 2.219-2.224V2.41h4.416v5.534h4.764v3.516ZM61.907 16.126c0-4.838 3.651-8.528 8.729-8.528 5.077 0 8.728 3.687 8.728 8.528 0 4.841-3.652 8.563-8.728 8.563-5.077 0-8.729-3.727-8.729-8.563Zm13.11 0c0-2.75-1.844-4.699-4.382-4.699-2.538 0-4.382 1.947-4.382 4.7 0 2.784 1.843 4.699 4.382 4.699 2.539 0 4.381-1.917 4.381-4.7ZM81.66 24.304v-9.293c0-4.317 2.746-7.415 7.65-7.415 4.867 0 7.614 3.098 7.614 7.415v9.293h-4.38V15.36c0-2.402-1.08-3.899-3.235-3.899-2.156 0-3.234 1.497-3.234 3.899v8.945H81.66ZM0 17.975v6.328h4.438v-6.055a2.222 2.222 0 0 1 2.219-2.22h4.55a8.001 8.001 0 0 0 5.659-2.349 8.018 8.018 0 0 0 0-11.332A8.001 8.001 0 0 0 11.206 0H0v7.911h4.438v-3.73h6.469a3.786 3.786 0 0 1 3.787 3.79 3.794 3.794 0 0 1-3.787 3.793H6.204A6.197 6.197 0 0 0 .47 15.597 6.213 6.213 0 0 0 0 17.975Z" />
</svg>