<svg xmlns="http://www.w3.org/2000/svg" fill="none" width="498" height="632" viewBox="0 0 498 632" preserveAspectRatio="xMidYMid meet">
    <path fill="url(#a)" d="M.2 466.4v163.9H115V473.5a57.5 57.5 0 0 1 16.8-40.7 57.4 57.4 0 0 1 40.6-16.8h117.8a207.1 207.1 0 0 0 207.2-207.5A207.6 207.6 0 0 0 290.3 1H.2v204.8H115v-96.6h167.4A98 98 0 0 1 352 138a98.2 98.2 0 0 1 28.7 69.4 98.2 98.2 0 0 1-28.7 69.4 98 98 0 0 1-69.4 28.8H160.8a160.4 160.4 0 0 0-61.5 12.2 160.5 160.5 0 0 0-52 34.9 160.7 160.7 0 0 0-35 52.1 160.9 160.9 0 0 0-12 61.6Z"/><path fill="url(#b)" d="M172.5 416a172.2 172.2 0 0 0-121.8 50.5 172.6 172.6 0 0 0-50.5 122v41.8H115V473.5a57.5 57.5 0 0 1 16.8-40.7 57.4 57.4 0 0 1 40.6-16.8Z"/><defs><radialGradient id="a" cx="0" cy="0" r="1" gradientTransform="matrix(632.616 0 0 633.388 499.3 -86.4)" gradientUnits="userSpaceOnUse"><stop stop-color="#A995FF"/><stop offset="1" stop-color="#6652F5"/></radialGradient><linearGradient id="b" x1="86.3" x2="86.3" y1="599.3" y2="358.5" gradientUnits="userSpaceOnUse"><stop stop-color="#6D4BFD"/><stop offset="1" stop-color="#1C0554"/></linearGradient></defs></svg>